<svg xmlns="http://www.w3.org/2000/svg" baseProfile="tiny" version="1.2" viewBox="0 0 400 400"><path fill="#f6d6a7" d="M400 0v366.3a91.7 91.7 0 0 0-35.5-28.5q-19.3-9.8-50.8-24.7-9.6-4.6-19.4-8.6a3.7 3.7-3.8 0 1-1.8-1.5q-7-12-16-23a2.4 2.3-68.8 0 1-.4-1.2c-.2-1.7.3-3.6-.4-5.6-1.8-5.7-4.8-10-9-14.6a.8.8-55.7 0 1-.1-.9q4.3-11.2 6.1-22.6a.5.5 0 0 1 .7-.4c10.7 4.2 18.9-.4 24.9-9q10-14.4 11.6-32c.6-6.8-.8-13.4-3.2-19.3-1.9-4.8-3.7-9-8.7-9.8q-5.7-1-10.6 1.3a.3.3 0 0 1-.5-.4c1.9-11.7 1.6-23.2 1.5-35.4-.1-6.1-1.5-14.8-2.4-19.4a66 66 0 0 0-9.9-25.3q-9.4-12.5-22.2-22.8-9-7.3-22.2-11.9-30.2-10.4-60.6-1.3-13.8 4.1-24 11.6-8.4 6.2-17.8 16-8.8 9-12.2 19.1-6.4 19.1-6.6 40.2-.2 13.8.5 26.5a.5.5 0 0 1-.7.4c-3.5-1.6-10.2-2.6-13.7 0-3.9 3-6.8 10.4-7.6 14.7q-1 4.9-.7 13.3.5 16.2 9 30.3C101 228 108 235 115.7 235a.9.9 84.2 0 1 .9.8q2.6 14.3 7.5 26.8c1.7 4.2 3.3 7 5.4 10.9a.9.9-39.3 0 1-.1 1q-5.4 6.4-7.5 14.9c-1.1 4.4.3 8.2 2 12.5a.8.7-30.9 0 1-.2.8q-5.8 4.8-11.4 11.5a5.4 5.3-83.3 0 1-1.6 1.2q-6.2 3.3-16.4 8.4-26.3 13-52.5 26.2-12 6.1-13.2 6.9A63.2 63.2 0 0 0 7 386q-2.8 6.9-4.6 14H0V0h400Z"/><path fill="#513418" d="M400 366.3v4.9q-6.5-9.6-13.3-14.9-11.8-9.1-28-16.8l-62.4-29a.3.3 0 0 0-.3.5c4.5 7.3 9 15.8 11.5 24q4.9 16 8.5 26.8c1 2.9-2 4.9-4.3 5.9q-10.7 4.5-22.8 6.6a.5.5-31.6 0 0-.2.8q10.5 8 16.8 13.4c3.8 3.2 6.8 7 3.8 11.5h-3q3.1-5-.8-8.3c-7.8-6.5-18-13.7-26.2-22.2a.7.7-37.1 0 1 .1-1.1l.3-.2a.8.8 0 0 1 1 0l5.3 4.5a1.1 1.1-31.7 0 0 1 .3q12.4-3.2 23.4-7.7c1.9-.8 3.5-1 2.7-3.4l-7.7-23.3c-1.3-3.9-3.3-9-5-12.2-9.2-17.9-15-29-24.8-41.4a.4.4 0 0 0-.7.1l-4.3 26.2q-2 12.4-5.3 26c-4.2 16.7-8 33.4-12.7 50l-3.3 12.7h-4l10.8-43.7a.5.5 0 0 0-.8-.5l-8.2 5.2a2.7 2.5 19.3 0 1-.8.3c-9.8 2.4-17.8 7.6-27.6 10q-22.9 5.5-45.4 1.7-4.8-.8-9-2.4a73 73 0 0 1-28.5-18.4q-1.7-1.7-2.9-3.7a.4.4 0 0 0-.7 0q-.6 1.7-.7 3-1.7 24.2-2.7 48.5h-3.7l3.8-86a2.3 2.3 34.7 0 0-.2-1l-2.8-6.2a.7.7 0 0 0-1.1-.2 191.4 191.4 0 0 0-21 25.4q-8 11.3-15.3 20.5l-2 3.8a1 1-50.8 0 0 0 1c5 6.3 9.3 9.3 16.6 13.6a.8.8 0 0 0 1-.1l7.7-6.5a.2.2-43.8 0 1 .3 0 .2.2 0 0 1 0 .4c-3.9 3.8-8.5 9.4-14.2 13.3q-5.7 3.8-17 12.1-4.2 3-4.7 4-1.3 2.2 0 5.9H73l-.3-3.2c-.1-2.8-.5-4 1.5-5.7q6.2-4.8 14.5-10.3c3.9-2.5 8.8-5 12.8-8a.5.4-52.6 0 0-.1-.7q-9.5-3.7-15.5-11.4-1.6-2-2.1-3.1a1.8 1.8 0 0 1 .2-1.8c7.3-10 11.2-14.5 15.8-22.9q2.6-4.7 7-11.3a.5.5 3.1 0 0-.7-.7q-4.7 2.5-7.6 3.8c-6.9 2.9-14.5 7.6-21.2 11Q53 348.5 46.8 351.3q-8.5 3.8-15.6 8-4 2.2-6.2 5-13 15.6-19 35.8H2.3q1.8-7.1 4.6-14a63.2 63.2 0 0 1 21.7-29.2q1.2-.8 13.2-6.9l52.5-26.2q10.2-5.1 16.4-8.4a5.4 5.3-83.3 0 0 1.6-1.2q5.6-6.7 11.4-11.5a.8.7-30.9 0 0 .2-.8c-1.7-4.3-3.1-8.1-2-12.6q2.1-8.4 7.5-14.9a.9.9-39.3 0 0 0-1c-2-3.7-3.6-6.6-5.3-10.8q-5-12.5-7.5-26.8a.9.9 84.2 0 0-.9-.8c-7.8.1-14.8-7-18.6-13.4q-8.4-14.1-9-30.3-.2-8.4.8-13.3c.8-4.3 3.7-11.7 7.6-14.7 3.5-2.6 10.2-1.6 13.7 0a.5.5 0 0 0 .7-.4q-.7-12.7-.5-26.5.2-21 6.6-40.2 3.4-10 12.2-19.1 9.4-9.8 17.9-16 10-7.5 24-11.6 30.3-9.1 60.5 1.3Q245 55.3 254 62.6q12.8 10.3 22.2 22.8a66 66 0 0 1 10 25.3c.8 4.6 2.2 13.3 2.3 19.4 0 12.2.4 23.7-1.5 35.4a.3.3 0 0 0 .5.4q4.9-2.3 10.6-1.3c5 .9 6.8 5 8.7 9.8a42.2 42.2 0 0 1 3.2 19.3q-1.6 17.6-11.6 32c-6 8.6-14.2 13.2-24.9 9a.5.5 0 0 0-.6.4q-2 11.4-6.2 22.6a.8.8-55.7 0 0 .1.9c4.2 4.5 7.2 9 9 14.6.7 2 .2 3.9.4 5.6a2.4 2.3-68.8 0 0 .5 1.2q8.8 11 15.9 23a3.7 3.7-3.8 0 0 1.8 1.5q9.8 4 19.4 8.6 31.5 14.9 50.8 24.7a91.7 91.7 0 0 1 35.5 28.5Z"/><path fill="#fecfa4" d="M268 84.4q1 4.2 3.1 7.9a3.2 2.7-73.6 0 1 .3.6q2.6 8.9 3 17c.2 4.5-1.1 11.8-1 17.1.3 13.1-.7 26.8.1 40.8q.6 9.4.1 16l.3 5.2a1.9 1.9-9.8 0 0 2.4 1.7q1.6-.5 3-1.8 2.4-8.7 7-16l2.8-2.7c5.4-4.8 10.8-.4 13 5a48 48 0 0 1 .2 32.7q-2.6 8-8.6 15.2c-5.8 6.7-12.3 9-20.5 7a.4.4-79.7 0 1-.3-.4q.4-3.3-.7-7.4.8-1.3.1-4a1 1 0 0 0-1.5-.5c-3.6 2.9-4.7 6.3-5.5 11.3a86.2 86.2 0 0 1-8.8 27.6q-6.4 12-8.2 14.6-8 11.4-21.9 21.4-6 4.3-14.9 7a4.3 4.3 34.8 0 1-1 0q-2.3.2-4.3 1.3a3.7 3.7 24 0 1-1 .4q-10.4 2.2-19.6 1.4-5-.4-10.6-2.8-8.9-3.8-10.1-4.6-25.5-16.6-35.6-45.1c-1.6-4.5-2.1-9.4-3.3-14.4-1.2-5.4-1.7-13.5-3.1-20q-.3-1.3-1.5-19.6l-.7-12.3c-.8-14.5.9-29.5 3.4-44q1.6-8.5 1.6-23 0-9.6.7-13c1.6-7 4.6-12.5 8.6-19.8 2.4-4.5 5.1-7.5 9.3-12.2q1.4-1.6 1.8-4.3c8.9-7.2 21.3-12.5 32.3-15.4 20.8-5.4 44.6-2 63 7.8Q257 68.3 268 84.4Z"/><path fill="#ebaf7a" d="M146 67.7q-.3 2.7-1.8 4.3c-4 4.7-6.8 7.7-9.2 12.2-4 7.3-7 12.8-8.6 19.8q-.7 3.4-.7 13 0 14.5-1.6 23a192.7 192.7 0 0 0-3.4 44l.7 12.3q1.2 18.3 1.5 19.6c1.4 6.5 2 14.6 3.1 20 1.2 5 1.7 10 3.3 14.4q10 28.5 35.6 45.1 1.2.8 10 4.6 5.8 2.4 10.7 2.8 9.2.8 19.5-1.4a3.7 3.7 24 0 0 1.1-.4q2-1 4.4-1.2a4.3 4.3 34.8 0 0 1-.2q8.8-2.6 14.8-7 14-10 21.9-21.3 1.8-2.6 8.2-14.6a86.2 86.2 0 0 0 8.8-27.6c.8-5 2-8.4 5.5-11.3a1 1 0 0 1 1.5.5q.6 2.8 0 4-2.3 3.2-3.3 8.3l-2.6 13.5q-1 5.2-6.7 17.4-10.2 22-31.1 35.3a68.9 68.9 0 0 1-33.1 9.9q-12 .6-23.6-3.6-21.6-7.9-34.8-27-6-8.6-8.9-15-3-6.7-5-16.8-3.9-19.3-5-40.8c-.8-13-1.3-23.6-2.4-38.7q-1.2-16.7-.2-32.5 1.2-17.8 3.2-25.5A74 74 0 0 1 146 67.7ZM279.3 189q-1.4 1.2-3 1.7a1.9 1.9-9.8 0 1-2.4-1.7l-.3-5.3q.5-6.4 0-15.9c-.9-14 0-27.7-.2-40.8-.1-5.3 1.2-12.6 1-17q-.4-8.2-3-17.1a3.2 2.7-73.6 0 0-.3-.6q-2.1-3.7-3-7.9 12.3 15 14 34.4 1.3 13.8 1.5 20.2.4 21.7-4.5 40.8c-.8 3-1 6-1 8.3q0 .7 1.2.8Z"/><path fill="#af7e54" d="M127.2 167.4a1 1 0 0 1-1-1.2q1-3.3 4.2-6.3 13.3-12.2 32.9-15.9c6-1.1 13.5-.9 15.9 5.8a1.2 1.2 0 0 1-.8 1.5q-1.3.3-2.7.4c-12.6.6-24 3.6-34.4 9.5-5.1 3-9 5.7-14.1 6.3ZM265 167.5a.8.8 0 0 1-.8 1.1c-4.2-.1-6.6-1.3-10.3-4.3q-4.6-4-6.7-5-16.6-8.3-33.3-7.2a2.2 2.2-80.4 0 1-2.1-3l.8-1.9a5.4 5.3 10.8 0 1 4.7-3.2 59.2 59.2 0 0 1 34.2 10c5.7 3.6 11.2 7.9 13.5 13.5Z"/><path fill="#ebaf7a" d="M181 164.8h-.9a.4.4 0 0 0-.2.7c3.2 3.4 4 6.8 3.4 11.9l-1.5 12.4-5.8 32.9a.5.5 0 0 1-.9.3l-3.7-3.7 1-1a1.4 1.4 0 0 0 .2-1c0-8 2.5-16.4 3.4-23q.3-2.7 1-5.3c.8-2.6 1.1-5.7 2.3-8.7q.8-2 .6-3.5-.7-4.2-1.7-12.2a.7.7 0 0 1 .8-.8q.9.1 2 1Z"/><path fill="#1e0c02" d="M181 164.8q5 4.6 4.3 11.5-2 21-6.6 42.4-1.1 5.1 3.5 8c9 5.7 21.3 1.8 29.4-4a.5.5-1.8 0 1 .7.7c-2.4 3.7-5.3 5.1-9.4 7q-7.5 3.3-14.3 3.2-10.6-4.1-16.7-11.7-1.1-1.2-1.1-2.4 0-.3.2-.3.2-.1.4 0l3.7 3.8a.5.5 0 0 0 .9-.3q3.6-19.9 5.8-33l1.5-12.3c.6-5-.2-8.5-3.4-11.9a.4.4 0 0 1 .2-.7h.9Z"/><path fill="#ebaf7a" d="M112.5 188.7a.4.4-59.4 0 1-.7.2q-3.6-7.6-10.5-13a2.5 2.5 0 0 0-1.7-.6H99a.6.6 64.2 0 0-.4 1.1q7 6.2 11.8 14.9a.8.8-35 0 1-.1 1q-4.2 3.5-4.4 7.5a.2.2-23.3 0 0 .3.2l4.5-5.3a1 1 63.2 0 1 1.7.5l.2 4a.8.8 0 0 1 0 .4q-6.4 10.7 1.5 19a1.5 1.5 19.9 0 1 .4.8l1.2 10.8a.3.3 0 0 1-.4.4c-9-1.9-16-12.1-18.8-20.1q-5.7-15.9-3-32.5.5-3.4 3.1-7.9 5-8.4 13.3-2.5a3.6 3.6 15.9 0 1 1.6 2.7l1 18.4Z"/><path fill="#513418" d="M170.2 174.7q-4-1.7-6.3-.4-.8-1.5-3.2-1.7-6.8-.5-10.8 1.2-6.2 1.7-10.2 5.2-.5.4-.7.3a.8.8 25.7 0 1-.4-1.3c4-5 10.3-10.4 16.8-10.8q8.6-.5 15.7 3a3 2.7-74.6 0 1 1.5 3q-.3 2-2.4 1.5ZM248 180.8l-9.2-5.4q-8.3-3.9-14.2 0-1.6-1.6-6-.3-2.7.9-3-.8a3.5 2.7-30.6 0 1 1.2-3c1.7-1.6 4.2-2.5 6.3-2.8q16.2-2.4 26.2 11a1 1-36.2 0 1-.2 1.3q-.3.3-1.1 0Z"/><path fill="#1e0c02" d="M163.8 174.3q2.8 7.7-4.4 11.6-4.5 1.4-8.3-2.1-2-4.3-1.2-10 4-1.7 10.8-1.2 2.4.2 3.2 1.7ZM238.8 175.4q-.1 6-.4 8-.2 1-2 3-4 3.9-9.9 1.2-4.8-5.6-1.9-12.2 5.9-3.9 14.2 0Z"/><path fill="#fef1d7" d="m170.2 174.7-.8 5.6a1.7 1.7 67.5 0 1-.3.8l-1.7 2.2a.5.5 2 0 1-.1.1l-6.1 3.5a1.2 1.2-54.1 0 1-.9.2q-1.6-.3-1-1.2 7.3-4 4.5-11.6 2.5-1.3 6.4.4ZM150 173.8q-1 5.7 1.1 10l-10.9-3.4q-.8-.2-.5-1.4 4-3.5 10.2-5.2ZM224.6 175.4q-2.9 6.6 2 12.2-8.4-1.6-8-12.5 4.4-1.3 6 .3ZM248 180.8q0 1.3-1 1.8-2.3 1.3-5.4 2.2-1 .3-2.5 1.2-1.6 1-2.7.4 1.8-2 2-3 .3-2 .4-8l9.2 5.4Z"/><path fill="#513418" d="M299.6 180.4q-5.6 3.4-7 5.2-4.4 5.4-8.1 10.6a2 2-49 0 0 .1 2.5c4.5 4.6 5.7 11.5 1.4 16.8q-1.6 2-6.1 5l5.6-8.2q1.7-6.2-3-11.6a1.3 1.3 0 0 0-1.8-.3q-1.4 1-1.3 2l-1.2 1.6a.4.4 56.3 0 1-.7-.2v-.6q.1-2.2 1.3-4 7.6-11.9 14-16.7 4.4-3.3 5.8-3.3 1.9-.1 1 1.2Z"/><path fill="#ebaf7a" d="M299.6 180.4q2.5 5.2 2.5 8.6-.1 3.7-2.2 16.4a.5.3 75.5 0 1 0 .2l-2.6 6.6a1.3 1-21.8 0 1-.2.3c-4.1 5.8-7.1 10.8-15.4 10.4q-1 0-1.8-2.4 4.5-3 6-5c4.4-5.3 3.2-12.2-1.3-16.8a2 2-49 0 1-.1-2.5q3.7-5.2 8.1-10.6 1.4-1.8 7-5.2Z"/><path fill="#513418" d="M292.2 203.3a.3.3 0 0 1-.5.1q-1.4-3.5-4.5-6.6a.8.8 0 0 1 .7-1.4c2.8.6 4.3 5.5 4.3 8Z"/><path fill="#ebaf7a" d="M285.5 212.3q-2-6.8-6-9.9-.2-1 1.3-2a1.3 1.3 0 0 1 1.6.3q4.8 5.4 3.1 11.7ZM114.5 216.5a.1.1 0 0 1-.1.1 5.9 1.2 83.6 0 1-1.9-5.7v-.2a5.9 1.2 83.6 0 1 .5-6 .1.1 0 0 1 .2 0l1.3 11.8ZM188.6 233.6q-10.5 1.1-17-5.5a1.3 1.3 26.2 0 1-.3-1l.6-5.2q6.1 7.6 16.7 11.7Z"/><path fill="#1e0c02" d="m153.7 249.2-.7-.2a.1.1 0 0 1 0-.2l8.2-6a.4.4 0 0 1 .6.4l-.1.4a.8.8 0 0 0 .2.8 46.6 46.6 0 0 0 26.8 9.8q11.8.7 22.6-2.2c5.8-1.6 10.5-4.5 17-7.6a.3.3 0 0 1 .3.5q-2 2.2-4.7 3.8a60.7 60.7 0 0 1-36.5 7.6c-8.9-.7-20.1-4-26.4-10.4a1 1 52.7 0 0-1.1-.2l-5.9 3.4a.5.5 0 0 1-.3 0Z"/><path fill="#513418" d="M233.6 247.7q-.3-2.5-3-3.7a.4.4 0 0 1-.3-.6l.2-.3a.4.4 0 0 1 .4-.3q5.1 1.4 3.2 5a.3.3 0 0 1-.5-.1Z"/><path fill="#fef1d7" d="m132.9 320.2 2.5 3.5a.2.2 0 0 0 .4 0q.2-1-.5-3-1-3.1-8.5-23.5-.8-2.2-1-5.9a3.4 3.3-35.8 0 1 .3-1.4l4.7-11a.6.6 0 0 1 1-.1q1.2 1.2 1.1 2.2-.1 5.2.7 7.4 1.4 3.7 5.4 8.9 10 13.4 27.8 19.2a61.9 61.9 0 0 0 29.6 3.2c4.8-.7 7.7-1 11.6-2.1a121.8 121.8 0 0 0 40.3-21.8 45.2 45.2 0 0 0 15.6-23.1 6.8 6.6-37.3 0 0 .4-2.1c0-4-.1-6.5 1.1-9.5a.3.3 0 0 1 .6 0c2.3 4 6.3 10.6 5.8 14.9-.9 7.2-4.4 23.3-5.7 35.1-1.2 10-3.4 17.2-6.1 27.3-.3 1-1.6 3.3-2.6 4.3-2.7 3-5.5 7-8.8 9.8a89.6 89.6 0 0 1-59.9 18.9c-19-.4-34.7-6-48.3-18.8-3.3-3-8.3-7.9-8.5-12.6q-.1-4.5.5-19.6a.3.3 28.4 0 1 .5-.2Z"/><path fill="#513418" d="M190.5 268c3.8.3 6.8-.3 10.3-.6a.4.4 0 0 1 .2.8q-5.3 2.5-10.7 2.1-5.3-.3-10.2-3.4a.4.4 0 0 1 .3-.8c3.4.8 6.3 1.7 10.1 2Z"/><path fill="#ebaf7a" d="M261.6 269.4q-1.6 10.3-7.1 17.2-3 3.6-9.8 8.6-15.5 11.4-34.9 17.1-17.2 5.1-35.9 2a50.5 50.5 0 0 1-28-12.7q-7.9-7.8-11.2-18.4a.7.7-73.1 0 1 1.2-.6c7.7 9.8 19 20.2 30.9 24.9q21 8.2 43.4 3a78.4 78.4 0 0 0 47.6-34.7q2.9-4.3 3.6-6.4h.2Z"/><path fill="#c6b9a8" d="M306.4 400h-57.1l3.3-12.7c4.7-16.6 8.5-33.3 12.7-50q3.4-13.6 5.3-26l4.3-26.2a.4.4 0 0 1 .7-.2 235.7 235.7 0 0 1 24.8 41.5c1.7 3.2 3.7 8.3 5 12.2L313 362c.8 2.3-.8 2.6-2.7 3.4q-11 4.5-23.4 7.7a1.1 1.1-31.7 0 1-1-.3l-5.4-4.4a.8.8 0 0 0-.9-.1l-.3.2a.7.7-37.1 0 0-.1 1c8.2 8.6 18.4 15.8 26.3 22.3q3.8 3.2.8 8.3ZM125 400H76.3q-1.3-3.7 0-6 .5-.8 4.7-3.9 11.3-8.3 17-12.1c5.7-3.9 10.3-9.5 14.2-13.3a.2.2 0 0 0 0-.4.2.2-43.8 0 0-.3 0l-7.8 6.5a.8.8 0 0 1-1 0 49.2 49.2 0 0 1-16.4-13.5 1 1-50.8 0 1-.1-1l2-3.8q7.3-9.2 15.2-20.5a191.4 191.4 0 0 1 21-25.4.7.7 0 0 1 1.2.2l2.8 6.1a2.3 2.3 34.7 0 1 .2 1l-3.8 86.1Z"/><path fill="#c6b9a8" d="M400 371.2V400h-33.6a247.7 247.7 0 0 1 18.8-32.4.3.3 0 0 0-.4-.4q-1.5 1-2.6 2.3-11 14.1-18.6 30.5h-54.3c3-4.6 0-8.3-3.8-11.5q-6.3-5.4-16.8-13.4a.5.5-31.6 0 1 .2-.8q12-2.1 22.8-6.6c2.4-1 5.2-3 4.3-5.9q-3.6-10.8-8.5-26.8c-2.5-8.2-7-16.7-11.5-24a.3.3 0 0 1 .3-.4q29 13.3 62.4 29 16.2 7.6 28 16.7 6.8 5.3 13.3 14.9ZM72.9 400H26l-.4-17.6a.3.3 0 0 0-.6 0q-1.4 8.6-.8 17.6H5.8q6-20.2 19-35.9 2.3-2.7 6.3-5 7.1-4.1 15.6-8 6.2-2.7 30.5-15.3c6.7-3.5 14.3-8.2 21.2-11.2q3-1.2 7.6-3.7a.5.5 3.1 0 1 .6.8q-4.3 6.5-7 11.2c-4.5 8.4-8.4 13-15.7 22.9a1.8 1.8 0 0 0-.2 1.8q.5 1.1 2 3.1 6.1 7.7 15.6 11.4a.5.4-52.6 0 1 0 .8c-4 3-8.8 5.4-12.7 7.9q-8.3 5.5-14.5 10.3c-2 1.6-1.6 2.9-1.5 5.7q0 1.7.3 3.2Z"/><path fill="#fef1d7" d="M245.3 400H128.8q1-24.3 2.7-48.5.1-1.3.7-3a.4.4 0 0 1 .8 0q1.1 2 2.8 3.7a73 73 0 0 0 28.5 18.4q4.2 1.6 9 2.4 22.5 3.8 45.4-1.8c9.8-2.3 17.8-7.4 27.6-10a2.7 2.5 19.3 0 0 .8-.2l8.2-5.2a.5.5 0 0 1 .8.5L245.3 400Z"/><path fill="#513418" d="M366.4 400h-2.8q7.7-16.4 18.6-30.5 1-1.3 2.6-2.3a.3.3 0 0 1 .4.4c-7.2 11-13.6 21-18.8 32.4ZM26 400h-1.8q-.6-9 .8-17.7a.3.3 0 0 1 .6 0L26 400Z"/></svg>