<svg xmlns="http://www.w3.org/2000/svg" baseProfile="tiny" version="1.2" viewBox="0 0 400 400"><path fill="#f6d6a7" d="M400 0v366c-9-13-22-21-36-28l-50-25-20-9a4 4-4 0 1-1-1l-16-23a2 2-69 0 1-1-1v-6c-2-5-5-10-9-14a1 1-56 0 1 0-1q4-11 6-23c11 4 19-1 25-9q10-15 12-32c0-7-1-14-3-20-2-4-4-9-9-9q-6-1-11 1c2-12 1-24 1-36l-2-19c-2-9-5-19-10-26q-9-12-22-22-9-8-22-12-30-11-61-2-14 5-24 12l-18 16q-9 9-12 19-6 19-7 40l1 27h-1c-3-1-10-2-13 0-4 3-7 11-8 15l-1 13q1 16 9 31c4 6 11 13 19 13a1 1 84 0 1 1 1q2 14 7 27l6 10a1 1-39 0 1-1 1q-5 7-7 15c-1 5 0 8 2 13a1 1-31 0 1 0 1q-6 4-12 11a5 5-83 0 1-1 1l-17 9-52 26-13 7c-10 6-18 18-22 29l-5 14H0V0h400Z"/><path fill="#513418" d="M400 366v5l-13-15q-12-9-28-16l-63-29c5 8 9 16 11 24l9 27c1 3-2 5-4 6q-11 4-23 6v1l17 13c3 4 6 7 3 12h-3q3-5 0-8c-8-7-18-14-27-23a1 1-37 0 1 0-1h1l6 5a1 1 56 0 0 1 0q12-3 23-8c2-1 4-1 3-3l-8-23-5-13c-9-17-15-29-24-41h-1l-4 26-6 26-12 50-4 13h-4l11-44a1 1 0 0 0-1 0l-8 5a3 2 19 0 1-1 0c-10 3-17 8-27 10q-23 6-46 2l-9-2c-11-5-20-10-28-19l-3-3h-1v2l-3 49h-4l4-86a2 2 35 0 0 0-1l-3-6a1 1 0 0 0-1 0c-8 7-14 15-21 25l-15 21-3 3a1 1-51 0 0 1 1c4 7 9 10 16 14a1 1 0 0 0 1 0l8-7v1c-4 4-8 9-14 13l-17 12-5 4v6h-3v-3c-1-3-1-4 1-6l15-10 12-8v-1q-9-4-15-11l-2-3a2 2 0 0 1 0-2l16-23 7-11-1-1-8 4-21 11-30 15-16 8q-4 2-6 5-13 16-19 36H2l5-14c4-11 12-23 22-29l13-7 52-26 17-9a5 5-83 0 0 1-1q6-7 12-11a1 1-31 0 0 0-1c-2-5-3-8-2-13q2-8 7-15a1 1-39 0 0 1-1l-6-10q-5-13-7-27a1 1 84 0 0-1-1c-8 0-15-7-19-13q-8-15-9-31l1-13c1-4 4-12 8-15 3-2 10-1 13 0h1l-1-27q1-21 7-40 3-10 12-19l18-16q10-7 24-12 31-9 61 2 13 4 22 12 13 10 22 22c5 7 8 17 10 26l2 19c0 12 1 24-1 36q5-2 11-1c5 0 7 5 9 9 2 6 3 13 3 20q-2 17-12 32c-6 8-14 13-25 9q-2 12-6 23a1 1-56 0 0 0 1c4 4 7 9 9 14v6a2 2-69 0 0 1 1l16 23a4 4-4 0 0 1 1l20 9 50 25c14 7 27 15 36 28Z"/><path fill="#fecfa4" d="M272 223a1 1 0 0 0-1 0l-5 21q-1 6-6 17-11 23-31 36c-10 6-22 9-33 10q-13 0-24-4-22-8-35-27-6-8-9-15-3-6-5-17-4-20-5-41l-2-38v-32q1-18 3-26c4-19 19-35 35-45 13-7 29-12 45-12q19 0 37 8c17 7 30 21 39 36q6 11 7 26l2 19q0 21-5 43l-1 6a1 1-40 0 0 1 0c2-6 5-14 10-18s11 0 13 5c6 15 3 35-8 48-6 7-12 9-21 7l-1-7Z"/><path fill="#af7e54" d="M127 167a1 1 0 0 1-1-1l4-6q14-12 33-16c6-1 14-1 16 6a1 1 0 0 1-1 1l-2 1c-13 0-24 3-35 9-5 3-9 6-14 6ZM265 168a1 1 0 0 1-1 1l-10-5-7-5q-16-8-33-7a2 2-80 0 1-2-3l1-2a5 5 11 0 1 4-3c13 0 24 3 35 10 5 4 11 8 13 14Z"/><path fill="#1e0c02" d="m172 219 3 4a1 1 0 0 0 1 0l5-28 1-10c1-8 3-14-2-20a1 1 0 0 1 1 0q5 5 4 11l-6 43q-1 5 3 8c9 5 21 2 30-4q-2 4-6 6c-5 2-13 6-17 5q-9-4-16-10l-2-4a1 1 0 0 1 1-1Z"/><path fill="#fecfa4" d="M113 189h-1q-4-8-11-13a3 3 0 0 0-1-1h-1a1 1 64 0 0 0 1q7 7 11 15a1 1-35 0 1 0 1q-4 4-4 8l5-5a1 1 0 0 1 1 0l1 4a1 1 0 0 1 0 1q-7 10 1 19a2 2 20 0 1 1 0l1 11-1 1c-9-2-16-12-18-21q-6-15-4-32l4-8q5-8 13-2a4 4 16 0 1 1 2l2 19Z"/><path fill="#513418" d="M170 175q-4-2-6-1l-3-1q-7-1-11 1-6 1-10 5h-1a1 1 26 0 1 0-1c4-5 10-10 16-11q9 0 16 3a3 3-75 0 1 2 3q-1 2-3 2ZM248 181l-9-6q-9-3-14 0h-6q-3 1-3-1a3 3-31 0 1 1-3l6-3q16-2 26 12a1 1-36 0 1 0 1h-1Z"/><path fill="#1e0c02" d="M164 174q3 8-5 12-4 1-8-2-2-4-1-10 4-2 11-1l3 1ZM239 175l-1 8-2 3q-4 4-9 2-5-6-2-13 5-3 14 0Z"/><path fill="#fef1d7" d="m170 175-1 5a2 1 69 0 1 0 1l-2 2a1 1-82 0 1 0 1l-6 3a1 1 36 0 1-1 0l-1-1q8-4 5-12 2-1 6 1ZM150 174q-1 6 1 10l-11-4v-1q4-4 10-5ZM225 175q-3 7 2 13-9-2-8-13h6ZM248 181l-1 2-5 2-3 1h-3l2-3 1-8 9 6Z"/><path fill="#513418" d="M277 204v-1a2 2 58 0 1 1-2q5-11 15-19l6-3a1 1 18 0 1 1 1l-7 5-9 11a2 2 0 0 0 1 2c4 5 5 12 1 17a1 1 89 0 1 0 1l-5 4h-1l4-6 2-5q1-1-3-8-1-3-4 3a1 1 0 0 1-2 0Z"/><path fill="#513418" d="m292 203-5-6a1 1 0 0 1 1-2c3 1 4 6 4 8Z"/><path fill="#fecfa4" d="M114 217a6 1 84 0 1-1-6 6 1 84 0 1 0-6l1 12Z"/><path fill="#1e0c02" d="M154 249h-1l8-6h1v1c7 7 18 10 27 10q11 1 22-2c6-2 11-4 17-8l1 1-5 4c-11 6-24 8-37 7-8 0-20-4-26-10a1 1 53 0 0-1 0l-6 3Z"/><path fill="#513418" d="m234 248-3-4-1-1h1q5 1 3 5Z"/><path fill="#fef1d7" d="m133 320 2 4h1l-1-3-8-24-1-6a3 3-36 0 1 0-1l5-11a1 1 0 0 1 1 0l1 2 1 7q1 4 5 9 10 14 28 19c11 4 19 5 29 4l12-2c15-5 28-13 40-22 8-7 13-14 16-23a7 7-37 0 0 0-2l1-10h1c2 4 6 11 6 15-1 7-5 23-6 35-1 10-3 17-6 27l-3 5-8 10a90 90 0 0 1-60 18c-19 0-35-6-49-18-3-3-8-8-8-13v-20h1Z"/><path fill="#513418" d="m191 268 10-1v1q-5 3-11 2-5 0-10-3v-1l11 2Z"/><path fill="#fecfa4" d="M262 269q-2 11-8 18l-9 8q-16 12-35 17-17 5-36 2c-11-1-21-5-28-12q-8-8-11-19a1 1-73 0 1 1 0c8 9 19 20 31 25q21 8 43 3c20-5 36-18 48-35q3-4 3-7h1Z"/><path fill="#c6b9a8" d="M306 400h-57l4-13 12-50 6-26 4-26h1a236 236 0 0 1 29 54l8 23c1 2-1 2-3 3q-11 5-23 8a1 1 56 0 1-1 0l-6-5h-1a1 1-37 0 0 0 1c9 9 19 16 27 23q3 3 0 8ZM125 400H76v-6l5-4 17-12c6-4 10-9 14-13v-1l-8 7a1 1 0 0 1-1 0c-7-4-12-7-16-14a1 1-51 0 1-1-1l3-3 15-21c7-10 13-18 21-25a1 1 0 0 1 1 0l3 6a2 2 35 0 1 0 1l-4 86Z"/><path fill="#c6b9a8" d="M400 371v29h-34l19-32v-1l-3 3q-11 14-18 30h-55c3-5 0-8-3-12l-17-13v-1q12-2 23-6c2-1 5-3 4-6l-9-27c-2-8-6-16-11-24l63 29q16 7 28 16l13 15ZM73 400H26v-18h-1l-1 18H6q6-20 19-36 2-3 6-5l16-8 30-15 21-11 8-4 1 1-7 11-16 23a2 2 0 0 0 0 2l2 3q6 7 15 11v1l-12 8-15 10c-2 2-2 3-1 6v3Z"/><path fill="#fef1d7" d="M245 400H129l3-49v-2h1l3 3c8 9 17 14 28 19l9 2q23 4 46-2c10-2 17-7 27-10a3 2 19 0 0 1 0l8-5a1 1 0 0 1 1 0l-11 44Z"/><path fill="#513418" d="M366 400h-2q7-16 18-30l3-3v1l-19 32ZM26 400h-2l1-18h1v18Z"/></svg>